<?xml version="1.0" standalone="no"?><!DOCTYPE svg PUBLIC "-//W3C//DTD SVG 1.1//EN" "http://www.w3.org/Graphics/SVG/1.1/DTD/svg11.dtd"><svg t="1581090838692" class="icon" viewBox="0 0 1024 1024" version="1.1" xmlns="http://www.w3.org/2000/svg" p-id="4031" xmlns:xlink="http://www.w3.org/1999/xlink" width="200" height="200"><defs><style type="text/css"></style></defs><path d="M512 1024C229.6 1024 0 794.4 0 512S229.6 0 512 0s512 229.6 512 512-229.6 512-512 512z m0-928C282.4 96 96 282.4 96 512s186.4 416 416 416 416-186.4 416-416S741.6 96 512 96z" fill="#808080" p-id="4032"></path><path d="M96.174 511.823a415.894 416.216 0 1 0 831.788 0 415.894 416.216 0 1 0-831.788 0Z" fill="#FFFFFF" p-id="4033"></path><path d="M463.366 713.081c-9.949 0-19.858-4.341-27.448-12.98L280.631 522.64c-15.14-17.321-15.14-45.429 0-62.75 15.178-17.32 39.755-17.32 54.895 0l127.84 146.088 244.276-279.151c15.14-17.366 39.717-17.366 54.895 0 15.14 17.321 15.14 45.384 0 62.705L490.814 700.1c-7.59 8.639-17.539 12.98-27.448 12.98z" fill="#FF0000" p-id="4034"></path></svg>