<?xml version="1.0" standalone="no"?><!DOCTYPE svg PUBLIC "-//W3C//DTD SVG 1.1//EN" "http://www.w3.org/Graphics/SVG/1.1/DTD/svg11.dtd"><svg t="1581088045590" class="icon" viewBox="0 0 1024 1024" version="1.1" xmlns="http://www.w3.org/2000/svg" p-id="4512" xmlns:xlink="http://www.w3.org/1999/xlink" width="200" height="200"><defs><style type="text/css"></style></defs><path d="M896 367V130c0-44.183-35.817-80-80-80H130c-44.183 0-80 35.817-80 80v764c0 44.183 35.817 80 80 80h243v50H110C49.249 1024 0 974.751 0 914V110C0 49.249 49.249 0 110 0h726c60.751 0 110 49.249 110 110v257h-50z" fill="#00A5E0" p-id="4513"></path><path d="M708.923 1024c-174.012 0-315.077-141.065-315.077-315.077s141.065-315.077 315.077-315.077S1024 534.911 1024 708.923 882.935 1024 708.923 1024zM709 444c-146.355 0-265 118.645-265 265 0 146.355 118.645 265 265 265 146.355 0 265-118.645 265-265 0-146.355-118.645-265-265-265z" fill="#00A5E0" p-id="4514"></path><path d="M834.552 653.07l-42.698-41.698-111.397 111.396 42.698 41.698L834.552 653.07z" fill="#00A5E0" p-id="4515"></path><path d="M624.67 664.011l-41.673 42.671 99.328 99.329 41.673-42.671-99.328-99.329zM221.92 196.92h502c13.807 0 25 11.193 25 25s-11.193 25-25 25h-502c-13.807 0-25-11.193-25-25s11.193-25 25-25zM221.92 433.23h67.99c13.807 0 25 11.193 25 25s-11.193 25-25 25h-67.99c-13.807 0-25-11.193-25-25s11.193-25 25-25z" fill="#00A5E0" p-id="4516"></path></svg>