<?xml version="1.0" standalone="no"?><!DOCTYPE svg PUBLIC "-//W3C//DTD SVG 1.1//EN" "http://www.w3.org/Graphics/SVG/1.1/DTD/svg11.dtd"><svg t="1581087971719" class="icon" viewBox="0 0 1024 1024" version="1.1" xmlns="http://www.w3.org/2000/svg" p-id="2431" xmlns:xlink="http://www.w3.org/1999/xlink" width="200" height="200"><defs><style type="text/css"></style></defs><path d="M935.301747 305.550583a28.220311 28.220311 0 0 1-24.672615-14.472988l-0.967553-1.693219a28.220311 28.220311 0 0 1 49.2646-27.61559l1.007869 1.854478a28.220311 28.220311 0 0 1-24.632301 41.927319zM798.594496 930.025759a28.220311 28.220311 0 0 1-16.770928-50.917505l2.862346-2.136681a28.220311 28.220311 0 1 1 33.703115 45.192813l-3.184864 2.338254a28.220311 28.220311 0 0 1-16.609669 5.523119z m84.660934-79.500649a28.220311 28.220311 0 0 1-21.608695-46.36194l2.257625-2.701087a28.220311 28.220311 0 1 1 43.539909 35.920425l-2.539828 3.023605a28.220311 28.220311 0 0 1-21.769955 10.239941z m63.334442-97.319759a28.220311 28.220311 0 0 1-25.317651-40.637249l1.53196-3.184863a28.220311 28.220311 0 1 1 50.756246 24.350097l-1.733534 3.547696a28.220311 28.220311 0 0 1-25.357965 15.924319z m38.258679-109.615753a28.583144 28.583144 0 0 1-6.04721-0.645035 28.220311 28.220311 0 0 1-21.528066-33.582171l0.725666-3.467067a28.220311 28.220311 0 1 1 55.23118 11.570328l-0.846609 4.031473a28.220311 28.220311 0 0 1-27.655905 22.092472zM995.773843 528.12821a28.220311 28.220311 0 0 1-28.220311-27.534961v-3.507381a28.220311 28.220311 0 0 1 56.440622-1.894793v4.031474a28.220311 28.220311 0 0 1-27.494646 28.905661z m-16.730613-114.896982a28.220311 28.220311 0 0 1-27.212443-20.802401l-0.927239-3.426752a28.220311 28.220311 0 1 1 54.344257-15.198653l1.048183 3.789585a28.220311 28.220311 0 0 1-27.252758 35.638221zM698.976797 986.547011a28.220311 28.220311 0 0 1-10.925292-54.223313l1.693219-0.725665a28.220311 28.220311 0 1 1 22.173102 51.885058l-2.015737 0.846609a28.220311 28.220311 0 0 1-10.925292 2.217311z" p-id="2432"></path><path d="M536.185915 499.907899m-233.825436 0a233.825437 233.825437 0 1 0 467.650873 0 233.825437 233.825437 0 1 0-467.650873 0Z" fill="#00E2FF" p-id="2433"></path><path d="M511.997077 1023.999395a511.997077 511.997077 0 1 1 342.675209-892.527818A28.220311 28.220311 0 1 1 816.77644 173.358582a455.556455 455.556455 0 1 0-243.299399 790.168718 28.220311 28.220311 0 0 1 7.538855 55.956845A517.721769 517.721769 0 0 1 511.997077 1023.999395z" p-id="2434"></path><path d="M721.633676 749.859228a28.220311 28.220311 0 0 1-19.955792-8.26452L487.808239 527.725063V177.390055a28.220311 28.220311 0 0 1 56.440623 0v326.952464l197.340605 197.54218A28.220311 28.220311 0 0 1 721.633676 749.859228z" p-id="2435"></path></svg>